<?xml version="1.0" encoding="UTF-8"?><svg id="a" xmlns="http://www.w3.org/2000/svg" viewBox="0 0 1300 1110"><path d="M829.24,982.68v-345.08c0-11.13,5.53-17.39,14.51-17.39h1.38c8.98,0,15.9,6.26,15.9,17.39v345.08c0,11.83-5.53,18.78-15.21,18.78h-.69c-8.98,0-15.9-6.96-15.9-18.78m14.51,77.23h2.76c55.28,0,88.46-32,88.46-85.57v-328.39c0-52.87-33.86-84.18-88.46-84.18h-2.76c-57.36,0-88.46,31.31-88.46,84.18v328.39c0,53.57,33.86,85.57,88.46,85.57m-184.51-5.56h74.63v-487.01h-74.63v487.01Zm-126.46-57.75v-371.52h7.6c15.9,0,22.11,3.48,22.11,18.78v328.38c0,16.7-11.75,24.35-26.26,24.35h-3.45Zm-72.56,57.75h93.99c48.37,0,82.24-20.18,82.24-82.1v-335.34c0-41.05-22.11-69.57-66.34-69.57h-109.88v487.01Zm-140.97-441.79h5.53l31.1,307.51h-32.48l-4.15-307.51Zm-75.33,441.79h80.86l-1.38-93.92h35.94l9.67,93.92h77.4l-53.21-487.01h-88.46l-60.82,487.01Zm-122.31-429.27h8.29c17.28,0,35.25,9.74,26.95,45.92l-31.79,133.58h-3.45v-179.5Zm0-57.75H49.73v487.01H122.29v-230.29h2.07c5.53,0,6.22,18.79,11.75,56.35l25.57,173.93h77.4l-45.61-282.47h-3.45l-46.99,32.7h-3.45l64.96-88.36c17.97-24.35,31.1-55.66,31.1-82.09,0-39.66-27.64-66.79-76.02-66.79h-37.32l-.69,3.48v-3.48Z"/><path d="M1175.1,544.57h74.63V57.56h-74.63v487.01ZM971.06,57.56v487.01h74.64v-231.68h31.1v231.68h74.63V57.56h-74.63v213.59h-31.1V57.56h-74.64Zm-85.85,494.67c46.3,0,90.53-41.05,62.2-129.41l-105.04-322.12,2.76-1.39,110.57,155.15v-114.1l-38.7-56.35c-15.89-22.26-42.15-34.09-67.72-34.09-48.37,0-93.99,41.05-63.58,130.8l109.19,319.34-2.07,1.39-118.86-154.45v110.62l44.23,60.53c15.9,22.26,41.46,34.09,67.03,34.09m-228.22-79.31V127.83c0-11.13,5.53-17.39,14.51-17.39h1.38c8.98,0,15.9,6.26,15.9,17.39V472.91c0,11.83-5.53,18.78-15.2,18.78h-.69c-8.98,0-15.89-6.96-15.89-18.78m14.51,77.23h2.76c55.28,0,88.46-32,88.46-85.58V136.18c0-52.88-33.86-84.18-88.46-84.18h-2.76c-57.36,0-88.46,31.31-88.46,84.18V464.56c0,53.57,33.86,85.58,88.46,85.58M415.64,120.18h44.23v424.39h74.64V120.18h44.23V57.56h-163.09v62.62Zm-106.6-12.52h5.53l34.55,346.47c1.38,16-6.22,22.26-14.51,22.26-10.37,0-17.97-4.87-18.66-24.35l-6.91-344.39Zm38.7,375h4.84l7.6,61.92h77.4L379.53,57.56h-85l-38.7,278.29c-8.98,65.4-17.97,110.62-17.97,149.58,0,54.96,26.95,63.31,46.99,63.31,25.57,0,49.07-12.52,62.89-66.1m-186.75,69.57c46.3,0,90.53-41.05,62.2-129.41L118.15,100.69l2.76-1.39,110.57,155.15v-114.1l-38.7-56.35c-15.89-22.26-42.15-34.09-67.72-34.09-48.37,0-93.99,41.05-63.58,130.8l109.19,319.34-2.07,1.39L49.73,346.98v110.62l44.23,60.53c15.9,22.26,41.46,34.09,67.03,34.09"/></svg>